<?xml version="1.0" encoding="UTF-8"?>
<svg width="400px" height="400px" viewBox="0 0 400 400" version="1.1" xmlns="http://www.w3.org/2000/svg" xmlns:xlink="http://www.w3.org/1999/xlink">
    <!-- Generator: Sketch 51.2 (57519) - http://www.bohemiancoding.com/sketch -->
    <title>Type M</title>
    <desc>Created with Sketch.</desc>
    <defs>
        <rect id="path-1" x="0" y="0" width="170" height="170" rx="16"></rect>
        <filter x="-10.3%" y="-7.4%" width="120.6%" height="120.6%" filterUnits="objectBoundingBox" id="filter-2">
            <feOffset dx="0" dy="5" in="SourceAlpha" result="shadowOffsetOuter1"></feOffset>
            <feGaussianBlur stdDeviation="5" in="shadowOffsetOuter1" result="shadowBlurOuter1"></feGaussianBlur>
            <feColorMatrix values="0 0 0 0 0   0 0 0 0 0   0 0 0 0 0  0 0 0 0.15 0" type="matrix" in="shadowBlurOuter1"></feColorMatrix>
        </filter>
        <path d="M57,119 C51.4771525,119 47,114.522847 47,109 C47,103.477153 51.4771525,99 57,99 C62.5228475,99 67,103.477153 67,109 C67,114.522847 62.5228475,119 57,119 Z M113,119 C107.477153,119 103,114.522847 103,109 C103,103.477153 107.477153,99 113,99 C118.522847,99 123,103.477153 123,109 C123,114.522847 118.522847,119 113,119 Z M85,73 C76.7157288,73 70,66.2842712 70,58 C70,49.7157288 76.7157288,43 85,43 C93.2842712,43 100,49.7157288 100,58 C100,66.2842712 93.2842712,73 85,73 Z" id="path-3"></path>
        <filter x="-5.3%" y="-5.3%" width="110.5%" height="110.5%" filterUnits="objectBoundingBox" id="filter-4">
            <feGaussianBlur stdDeviation="3" in="SourceAlpha" result="shadowBlurInner1"></feGaussianBlur>
            <feOffset dx="0" dy="2" in="shadowBlurInner1" result="shadowOffsetInner1"></feOffset>
            <feComposite in="shadowOffsetInner1" in2="SourceAlpha" operator="arithmetic" k2="-1" k3="1" result="shadowInnerInner1"></feComposite>
            <feColorMatrix values="0 0 0 0 0   0 0 0 0 0   0 0 0 0 0  0 0 0 1 0" type="matrix" in="shadowInnerInner1"></feColorMatrix>
        </filter>
    </defs>
    <g id="Type-M" stroke="none" stroke-width="1" fill="none" fill-rule="evenodd">
        <rect fill="#50E6D2" x="0" y="0" width="400" height="400"></rect>
        <g id="Wall-bit" transform="translate(210.000000, 20.000000)">
            <g id="Plate">
                <use fill="black" fill-opacity="1" filter="url(#filter-2)" xlink:href="#path-1"></use>
                <use fill="#FFFFFF" fill-rule="evenodd" xlink:href="#path-1"></use>
            </g>
            <rect id="Border" stroke="#E8EBF0" stroke-width="2" x="11" y="11" width="148" height="148" rx="6"></rect>
            <g id="Holes">
                <use fill="#2E3033" fill-rule="evenodd" xlink:href="#path-3"></use>
                <use fill="black" fill-opacity="1" filter="url(#filter-4)" xlink:href="#path-3"></use>
            </g>
        </g>
        <g id="Cable" transform="translate(26.000000, 149.000000)">
            <path d="M88,251 C88,210.232422 110.388672,189.570313 150.96582,173.142578 C191.542969,156.714844 206,137.53125 206,108 C206,78.46875 184.1875,60.2949219 149.201172,60.2949219" stroke="#45484D" stroke-width="12"></path>
            <circle id="Plasticky" fill="#393B40" cx="127" cy="60" r="37"></circle>
            <path d="M123.735598,11.8511249 L153.85582,76.984325 C159.651123,89.5163239 154.189951,104.373537 141.657952,110.16884 C138.881636,111.45272 130.453266,113.704592 116.372843,116.924454 L79.7833405,6.11019897 C92.4157207,2.29460646 100.877832,0.340532116 105.169675,0.247975951 C109.003104,0.165305747 112.901792,1.18207418 116.372843,3.40619821 C119.581541,5.4622159 122.136038,8.39217139 123.735598,11.8511249 Z" id="Triangle" fill="#2E3033"></path>
            <path d="M103.735598,16.8511249 L133.85582,81.984325 C139.651123,94.5163239 134.189951,109.373537 121.657952,115.16884 C117.493478,117.09466 112.879339,117.837289 108.320913,117.315387 L49.8845842,110.62491 C36.1670797,109.054369 26.3200202,96.6609595 27.8905612,82.9434551 C28.3245534,79.1528567 29.6203932,75.5118793 31.6788186,72.2994239 L68.7430599,14.4555858 C74.7023215,5.15533961 87.0725968,2.44693655 96.3728429,8.40619821 C99.5815408,10.4622159 102.136038,13.3921714 103.735598,16.8511249 Z" id="Triangle" fill="#45474D"></path>
            <path d="M59.8065718,105.218123 C55.7284054,106.010838 51.7797758,103.347453 50.9870605,99.2692871 C50.1943453,95.1911208 52.8577297,91.2424911 56.935896,90.4497759 L108.645232,80.4368969 C112.723398,79.6441817 116.672028,82.3075661 117.464743,86.3857324 C118.257458,90.4638987 115.594074,94.4125284 111.515908,95.2052436 L59.8065718,105.218123 Z M8.99779374,97.3186071 C4.9039643,98.114367 0.940169013,95.4407533 0.14440918,91.3469238 C-0.651350653,87.2530944 2.02226302,83.2892991 6.11609247,82.4935393 L57.7559619,72.3823511 C61.8497914,71.5865912 65.8135867,74.2602049 66.6093465,78.3540344 C67.4051063,82.4478638 64.7314927,86.4116591 60.6376632,87.2074189 L8.99779374,97.3186071 Z M34.7668457,56.8956299 C29.8471849,57.8519151 25.0837894,54.6389643 24.1275042,49.7193035 C23.171219,44.7996426 26.3841698,40.0362472 31.3038307,39.079962 L81.3611745,29.5387008 C86.2808353,28.5824156 91.0442308,31.7953664 92.0005159,36.7150272 C92.9568011,41.6346881 89.7438504,46.3980835 84.8241895,47.3543687 L34.7668457,56.8956299 Z" id="Prongs" fill="#FFFFFF"></path>
        </g>
    </g>
</svg>